<svg id="Ebene_1" data-name="Ebene 1" xmlns="http://www.w3.org/2000/svg" width="16" height="16" viewBox="0 0 16 16"><defs><style>.cls-1{fill:#0098d6;stroke:#103a5d;stroke-miterlimit:10;stroke-width:0.5px;}.cls-2{fill:#fff;}</style></defs><title>forum_structure</title><polyline class="cls-1" points="11.61 4.93 14.11 4.93 14.11 11.82 14.12 11.82 14.12 14.36 11.62 11.84 4.91 11.84 4.91 9.3"/><rect class="cls-2" x="3.93" y="3.93" width="8" height="6" rx="0.6"/><path class="cls-1" d="M10.55,2.58v5.3a.35.35,0,0,1-.35.35H4.41L1.93,10.75V8.21h0V2.58a.35.35,0,0,1,.35-.35h7.91A.36.36,0,0,1,10.55,2.58Z"/><rect class="cls-2" x="2.71" y="3.7" width="6.97" height="0.74"/><rect class="cls-2" x="2.71" y="5.19" width="6.97" height="0.74"/><rect class="cls-2" x="2.71" y="6.68" width="6.97" height="0.74"/></svg>