<?xml version="1.0" encoding="UTF-8" standalone="no"?>
<!DOCTYPE svg PUBLIC "-//W3C//DTD SVG 1.1//EN" "http://www.w3.org/Graphics/SVG/1.1/DTD/svg11.dtd">
<svg width="100%" height="100%" viewBox="0 0 192 150" version="1.1" xmlns="http://www.w3.org/2000/svg" xmlns:xlink="http://www.w3.org/1999/xlink" xml:space="preserve" xmlns:serif="http://www.serif.com/" style="fill-rule:evenodd;clip-rule:evenodd;stroke-linecap:round;stroke-linejoin:round;stroke-miterlimit:1.5;">
    <g transform="matrix(0.973783,0,0,0.97943,4.07961,2.75886)">
        <path d="M185.4,24.939L185.4,122.578C185.4,134.512 175.655,144.2 163.653,144.2L24.932,144.2C12.93,144.2 3.185,134.512 3.185,122.578L3.185,24.939C3.185,13.005 12.93,3.317 24.932,3.317L163.653,3.317C175.655,3.317 185.4,13.005 185.4,24.939Z" style="fill:rgb(60,60,60);stroke:rgb(46,161,219);stroke-width:5.12px;"/>
    </g>
    <g transform="matrix(1,0,0,1,-1.65659,-0.127316)">
        <g id="Ebene_11">
            <g>
                <g transform="matrix(0.744524,0,0,0.744524,15.1987,19.7946)">
                    <g transform="matrix(0.823998,0,0,0.823998,89.1432,138.007)">
                        <path d="M0,-30.416L-26.844,0.302L-28.956,-30.718L0,-30.416Z" style="fill:white;fill-rule:nonzero;"/>
                    </g>
                    <g transform="matrix(0.823998,0,0,0.823998,155.265,56.1607)">
                        <path d="M0,60.842C0.008,66.172 -4.307,70.501 -9.638,70.508L-109.606,70.652C-114.937,70.66 -119.265,66.345 -119.272,61.014L-119.36,0C-119.367,-5.331 -115.052,-9.659 -109.722,-9.667L-9.754,-9.811C-4.423,-9.818 -0.095,-5.503 -0.087,-0.173L0,60.842Z" style="fill:white;fill-rule:nonzero;"/>
                    </g>
                    <g transform="matrix(0.823998,0,0,0.823998,83.1798,75.0254)">
                        <path d="M0,14.195C-0.309,14.65 -0.166,15.236 0.318,15.496L21.86,30.209C22.276,30.57 22.837,30.473 23.108,29.994L58.671,-15.593C59.008,-16.028 58.834,-16.375 58.284,-16.365L55.324,-16.311C54.774,-16.301 53.927,-16.081 53.441,-15.823L20.344,16.487C19.948,16.869 19.239,16.948 18.768,16.664L5.126,8.427C4.655,8.142 4.017,8.282 3.708,8.737L0,14.195Z" style="fill:rgb(60,60,60);fill-rule:nonzero;"/>
                    </g>
                </g>
                <g transform="matrix(0.856147,0,0,0.856147,22.2798,9.22278)">
                    <g transform="matrix(-0.596803,0,0,0.596803,208.25,53.6484)">
                        <g transform="matrix(0.823998,0,0,0.823998,89.1432,138.007)">
                            <path d="M0,-30.416L-26.844,0.302L-28.956,-30.718L0,-30.416Z" style="fill:rgb(46,161,219);fill-rule:nonzero;"/>
                        </g>
                        <g transform="matrix(0.823998,0,0,0.823998,155.265,56.1607)">
                            <path d="M0,60.842C0.008,66.172 -4.307,70.501 -9.638,70.508L-109.606,70.652C-114.937,70.66 -119.265,66.345 -119.272,61.014L-119.36,0C-119.367,-5.331 -115.052,-9.659 -109.722,-9.667L-9.754,-9.811C-4.423,-9.818 -0.095,-5.503 -0.087,-0.173L0,60.842Z" style="fill:rgb(46,161,219);fill-rule:nonzero;"/>
                        </g>
                    </g>
                    <g transform="matrix(0.819909,0,0,0.819909,19.7804,86.9667)">
                        <g transform="matrix(1,0,0,1,49.4015,0)">
                            <circle cx="120.235" cy="18.488" r="4.648" style="fill:white;"/>
                        </g>
                        <g transform="matrix(1,0,0,1,32.3714,0)">
                            <circle cx="120.235" cy="18.488" r="4.648" style="fill:white;"/>
                        </g>
                        <g transform="matrix(1,0,0,1,15.4191,0)">
                            <circle cx="120.235" cy="18.488" r="4.648" style="fill:white;"/>
                        </g>
                    </g>
                </g>
                <g transform="matrix(1,0,0,1,6.10465,10.6189)">
                    <g transform="matrix(0.690397,0,0,0.690397,-21.7765,-19.3518)">
                        <g transform="matrix(0.823998,0,0,0.823998,89.1432,138.007)">
                            <path d="M0,-30.416L-26.844,0.302L-28.956,-30.718L0,-30.416Z" style="fill:rgb(46,161,219);fill-rule:nonzero;"/>
                        </g>
                        <g transform="matrix(0.823998,0,0,0.823998,155.265,56.1607)">
                            <path d="M0,60.842C0.008,66.172 -4.307,70.501 -9.638,70.508L-109.606,70.652C-114.937,70.66 -119.265,66.345 -119.272,61.014L-119.36,0C-119.367,-5.331 -115.052,-9.659 -109.722,-9.667L-9.754,-9.811C-4.423,-9.818 -0.095,-5.503 -0.087,-0.173L0,60.842Z" style="fill:rgb(46,161,219);fill-rule:nonzero;"/>
                        </g>
                    </g>
                    <g transform="matrix(1,0,0,1,-101.178,18.2394)">
                        <g transform="matrix(1,0,0,1,49.4015,0)">
                            <circle cx="120.235" cy="18.488" r="4.648" style="fill:white;"/>
                        </g>
                        <g transform="matrix(1,0,0,1,32.3714,0)">
                            <circle cx="120.235" cy="18.488" r="4.648" style="fill:white;"/>
                        </g>
                        <g transform="matrix(1,0,0,1,15.4191,0)">
                            <circle cx="120.235" cy="18.488" r="4.648" style="fill:white;"/>
                        </g>
                    </g>
                </g>
            </g>
        </g>
    </g>
</svg>
