<svg id="Ebene_1" data-name="Ebene 1" xmlns="http://www.w3.org/2000/svg" width="16" height="16" viewBox="0 0 16 16"><defs><style>.cls-1{fill:#103a5d;}.cls-2{opacity:0.25;}.cls-3{fill:#fff;}</style></defs><title>forumicon</title><rect class="cls-1" x="-0.11" y="-0.35" width="16.19" height="16.65"/><g class="cls-2"><path class="cls-3" d="M18,10.63v4.45H10.43a6.59,6.59,0,0,1,3.62-5.74,6.49,6.49,0,0,0,3.89,1.29Z"/></g><path class="cls-3" d="M17,10.63v4.45H9.43a6.59,6.59,0,0,1,3.62-5.74,6.49,6.49,0,0,0,3.89,1.29Z"/><g class="cls-2"><path class="cls-3" d="M16.63.6V8.89h-.06a4.15,4.15,0,0,1,0-8.3Z"/></g><path class="cls-3" d="M15.63.6V8.89h-.06a4.15,4.15,0,0,1,0-8.3Z"/><path class="cls-3" d="M4.44,4.74A4.15,4.15,0,0,1,.35,8.89V.6A4.14,4.14,0,0,1,4.44,4.74Z"/><path class="cls-3" d="M6.46,15.08H-1V10.63a6.41,6.41,0,0,0,3.84-1.3A6.61,6.61,0,0,1,6.46,15.08Z"/><polygon class="cls-3" points="8.75 6.83 7.07 6.83 6.61 0.87 9.21 0.87 8.75 6.83"/><rect class="cls-3" x="6.92" y="7.59" width="1.99" height="1.99" rx="0.97"/></svg>